# xmcd
# 
# Track frame offsets:
#     150
#     47093
#     88326
#     121527
#     156336
#     203763
#     217770
#     236192
#     294765
# 
# Disc length: 4440
# 
# Revision: 0
# Processed by: cddbd v1.5.2PL0 Copyright (c) Steve Scherf et al.
# Submitted via: fre:ac v1.0.27
# 
DISCID=76115609
DTITLE=Cannonball Adderley - Money In The Pocket
DYEAR=2005
DGENRE=Jazz
TTITLE0=Money In The Pocket
TTITLE1=Stardust
TTITLE2=Introduction To A Samba
TTITLE3=Hear Me Talkin` To Ya
TTITLE4=Requiem For A Jazz Musician
TTITLE5=Cannon`s Theme (aka Unit 7)
TTITLE6=The Sticks
TTITLE7=Fiddler On The Roof
TTITLE8=Data track
EXTD=
EXTT0=
EXTT1=
EXTT2=
EXTT3=
EXTT4=
EXTT5=
EXTT6=
EXTT7=
EXTT8=
PLAYORDER=
